<mxfile host="Electron" modified="2023-11-27T21:47:43.548Z" agent="Mozilla/5.0 (Windows NT 10.0; Win64; x64) AppleWebKit/537.36 (KHTML, like Gecko) draw.io/21.5.1 Chrome/112.0.5615.204 Electron/24.6.0 Safari/537.36" etag="e0eseljDmwU2TGXB1Hib" version="21.5.1" type="device">
  <diagram name="Page-1" id="qUUMN4BgyJ6pl6Xwltkp">
    <mxGraphModel dx="1418" dy="868" grid="1" gridSize="10" guides="1" tooltips="1" connect="1" arrows="1" fold="1" page="1" pageScale="1" pageWidth="827" pageHeight="1169" math="0" shadow="0">
      <root>
        <mxCell id="0" />
        <mxCell id="1" parent="0" />
        <mxCell id="XEY-7R-VME7h0qJHm2Rb-133" value="User" style="shape=table;startSize=25;container=1;collapsible=0;childLayout=tableLayout;fixedRows=1;rowLines=1;fontStyle=1;align=center;resizeLast=1;" vertex="1" parent="1">
          <mxGeometry x="254" y="690" width="121" height="201" as="geometry" />
        </mxCell>
        <mxCell id="XEY-7R-VME7h0qJHm2Rb-134" style="shape=tableRow;horizontal=0;startSize=0;swimlaneHead=0;swimlaneBody=0;fillColor=none;collapsible=0;dropTarget=0;points=[[0,0.5],[1,0.5]];portConstraint=eastwest;top=0;left=0;right=0;bottom=0;" vertex="1" parent="XEY-7R-VME7h0qJHm2Rb-133">
          <mxGeometry y="25" width="121" height="22" as="geometry" />
        </mxCell>
        <mxCell id="XEY-7R-VME7h0qJHm2Rb-135" value="string" style="shape=partialRectangle;connectable=0;fillColor=none;top=0;left=0;bottom=0;right=0;align=left;spacingLeft=2;overflow=hidden;fontSize=11;" vertex="1" parent="XEY-7R-VME7h0qJHm2Rb-134">
          <mxGeometry width="48" height="22" as="geometry">
            <mxRectangle width="48" height="22" as="alternateBounds" />
          </mxGeometry>
        </mxCell>
        <mxCell id="XEY-7R-VME7h0qJHm2Rb-136" value="email" style="shape=partialRectangle;connectable=0;fillColor=none;top=0;left=0;bottom=0;right=0;align=left;spacingLeft=2;overflow=hidden;fontSize=11;" vertex="1" parent="XEY-7R-VME7h0qJHm2Rb-134">
          <mxGeometry x="48" width="73" height="22" as="geometry">
            <mxRectangle width="73" height="22" as="alternateBounds" />
          </mxGeometry>
        </mxCell>
        <mxCell id="XEY-7R-VME7h0qJHm2Rb-137" style="shape=tableRow;horizontal=0;startSize=0;swimlaneHead=0;swimlaneBody=0;fillColor=none;collapsible=0;dropTarget=0;points=[[0,0.5],[1,0.5]];portConstraint=eastwest;top=0;left=0;right=0;bottom=0;" vertex="1" parent="XEY-7R-VME7h0qJHm2Rb-133">
          <mxGeometry y="47" width="121" height="22" as="geometry" />
        </mxCell>
        <mxCell id="XEY-7R-VME7h0qJHm2Rb-138" value="string" style="shape=partialRectangle;connectable=0;fillColor=none;top=0;left=0;bottom=0;right=0;align=left;spacingLeft=2;overflow=hidden;fontSize=11;" vertex="1" parent="XEY-7R-VME7h0qJHm2Rb-137">
          <mxGeometry width="48" height="22" as="geometry">
            <mxRectangle width="48" height="22" as="alternateBounds" />
          </mxGeometry>
        </mxCell>
        <mxCell id="XEY-7R-VME7h0qJHm2Rb-139" value="username" style="shape=partialRectangle;connectable=0;fillColor=none;top=0;left=0;bottom=0;right=0;align=left;spacingLeft=2;overflow=hidden;fontSize=11;" vertex="1" parent="XEY-7R-VME7h0qJHm2Rb-137">
          <mxGeometry x="48" width="73" height="22" as="geometry">
            <mxRectangle width="73" height="22" as="alternateBounds" />
          </mxGeometry>
        </mxCell>
        <mxCell id="XEY-7R-VME7h0qJHm2Rb-140" style="shape=tableRow;horizontal=0;startSize=0;swimlaneHead=0;swimlaneBody=0;fillColor=none;collapsible=0;dropTarget=0;points=[[0,0.5],[1,0.5]];portConstraint=eastwest;top=0;left=0;right=0;bottom=0;" vertex="1" parent="XEY-7R-VME7h0qJHm2Rb-133">
          <mxGeometry y="69" width="121" height="22" as="geometry" />
        </mxCell>
        <mxCell id="XEY-7R-VME7h0qJHm2Rb-141" value="string" style="shape=partialRectangle;connectable=0;fillColor=none;top=0;left=0;bottom=0;right=0;align=left;spacingLeft=2;overflow=hidden;fontSize=11;" vertex="1" parent="XEY-7R-VME7h0qJHm2Rb-140">
          <mxGeometry width="48" height="22" as="geometry">
            <mxRectangle width="48" height="22" as="alternateBounds" />
          </mxGeometry>
        </mxCell>
        <mxCell id="XEY-7R-VME7h0qJHm2Rb-142" value="password" style="shape=partialRectangle;connectable=0;fillColor=none;top=0;left=0;bottom=0;right=0;align=left;spacingLeft=2;overflow=hidden;fontSize=11;" vertex="1" parent="XEY-7R-VME7h0qJHm2Rb-140">
          <mxGeometry x="48" width="73" height="22" as="geometry">
            <mxRectangle width="73" height="22" as="alternateBounds" />
          </mxGeometry>
        </mxCell>
        <mxCell id="XEY-7R-VME7h0qJHm2Rb-143" style="shape=tableRow;horizontal=0;startSize=0;swimlaneHead=0;swimlaneBody=0;fillColor=none;collapsible=0;dropTarget=0;points=[[0,0.5],[1,0.5]];portConstraint=eastwest;top=0;left=0;right=0;bottom=0;" vertex="1" parent="XEY-7R-VME7h0qJHm2Rb-133">
          <mxGeometry y="91" width="121" height="22" as="geometry" />
        </mxCell>
        <mxCell id="XEY-7R-VME7h0qJHm2Rb-144" value="int" style="shape=partialRectangle;connectable=0;fillColor=none;top=0;left=0;bottom=0;right=0;align=left;spacingLeft=2;overflow=hidden;fontSize=11;" vertex="1" parent="XEY-7R-VME7h0qJHm2Rb-143">
          <mxGeometry width="48" height="22" as="geometry">
            <mxRectangle width="48" height="22" as="alternateBounds" />
          </mxGeometry>
        </mxCell>
        <mxCell id="XEY-7R-VME7h0qJHm2Rb-145" value="level" style="shape=partialRectangle;connectable=0;fillColor=none;top=0;left=0;bottom=0;right=0;align=left;spacingLeft=2;overflow=hidden;fontSize=11;" vertex="1" parent="XEY-7R-VME7h0qJHm2Rb-143">
          <mxGeometry x="48" width="73" height="22" as="geometry">
            <mxRectangle width="73" height="22" as="alternateBounds" />
          </mxGeometry>
        </mxCell>
        <mxCell id="XEY-7R-VME7h0qJHm2Rb-146" style="shape=tableRow;horizontal=0;startSize=0;swimlaneHead=0;swimlaneBody=0;fillColor=none;collapsible=0;dropTarget=0;points=[[0,0.5],[1,0.5]];portConstraint=eastwest;top=0;left=0;right=0;bottom=0;" vertex="1" parent="XEY-7R-VME7h0qJHm2Rb-133">
          <mxGeometry y="113" width="121" height="22" as="geometry" />
        </mxCell>
        <mxCell id="XEY-7R-VME7h0qJHm2Rb-147" value="int" style="shape=partialRectangle;connectable=0;fillColor=none;top=0;left=0;bottom=0;right=0;align=left;spacingLeft=2;overflow=hidden;fontSize=11;" vertex="1" parent="XEY-7R-VME7h0qJHm2Rb-146">
          <mxGeometry width="48" height="22" as="geometry">
            <mxRectangle width="48" height="22" as="alternateBounds" />
          </mxGeometry>
        </mxCell>
        <mxCell id="XEY-7R-VME7h0qJHm2Rb-148" value="xp" style="shape=partialRectangle;connectable=0;fillColor=none;top=0;left=0;bottom=0;right=0;align=left;spacingLeft=2;overflow=hidden;fontSize=11;" vertex="1" parent="XEY-7R-VME7h0qJHm2Rb-146">
          <mxGeometry x="48" width="73" height="22" as="geometry">
            <mxRectangle width="73" height="22" as="alternateBounds" />
          </mxGeometry>
        </mxCell>
        <mxCell id="XEY-7R-VME7h0qJHm2Rb-149" style="shape=tableRow;horizontal=0;startSize=0;swimlaneHead=0;swimlaneBody=0;fillColor=none;collapsible=0;dropTarget=0;points=[[0,0.5],[1,0.5]];portConstraint=eastwest;top=0;left=0;right=0;bottom=0;" vertex="1" parent="XEY-7R-VME7h0qJHm2Rb-133">
          <mxGeometry y="135" width="121" height="22" as="geometry" />
        </mxCell>
        <mxCell id="XEY-7R-VME7h0qJHm2Rb-150" value="string[]" style="shape=partialRectangle;connectable=0;fillColor=none;top=0;left=0;bottom=0;right=0;align=left;spacingLeft=2;overflow=hidden;fontSize=11;" vertex="1" parent="XEY-7R-VME7h0qJHm2Rb-149">
          <mxGeometry width="48" height="22" as="geometry">
            <mxRectangle width="48" height="22" as="alternateBounds" />
          </mxGeometry>
        </mxCell>
        <mxCell id="XEY-7R-VME7h0qJHm2Rb-151" value="friends" style="shape=partialRectangle;connectable=0;fillColor=none;top=0;left=0;bottom=0;right=0;align=left;spacingLeft=2;overflow=hidden;fontSize=11;" vertex="1" parent="XEY-7R-VME7h0qJHm2Rb-149">
          <mxGeometry x="48" width="73" height="22" as="geometry">
            <mxRectangle width="73" height="22" as="alternateBounds" />
          </mxGeometry>
        </mxCell>
        <mxCell id="XEY-7R-VME7h0qJHm2Rb-152" style="shape=tableRow;horizontal=0;startSize=0;swimlaneHead=0;swimlaneBody=0;fillColor=none;collapsible=0;dropTarget=0;points=[[0,0.5],[1,0.5]];portConstraint=eastwest;top=0;left=0;right=0;bottom=0;" vertex="1" parent="XEY-7R-VME7h0qJHm2Rb-133">
          <mxGeometry y="157" width="121" height="22" as="geometry" />
        </mxCell>
        <mxCell id="XEY-7R-VME7h0qJHm2Rb-153" value="string" style="shape=partialRectangle;connectable=0;fillColor=none;top=0;left=0;bottom=0;right=0;align=left;spacingLeft=2;overflow=hidden;fontSize=11;" vertex="1" parent="XEY-7R-VME7h0qJHm2Rb-152">
          <mxGeometry width="48" height="22" as="geometry">
            <mxRectangle width="48" height="22" as="alternateBounds" />
          </mxGeometry>
        </mxCell>
        <mxCell id="XEY-7R-VME7h0qJHm2Rb-154" value="avatar" style="shape=partialRectangle;connectable=0;fillColor=none;top=0;left=0;bottom=0;right=0;align=left;spacingLeft=2;overflow=hidden;fontSize=11;" vertex="1" parent="XEY-7R-VME7h0qJHm2Rb-152">
          <mxGeometry x="48" width="73" height="22" as="geometry">
            <mxRectangle width="73" height="22" as="alternateBounds" />
          </mxGeometry>
        </mxCell>
        <mxCell id="XEY-7R-VME7h0qJHm2Rb-155" style="shape=tableRow;horizontal=0;startSize=0;swimlaneHead=0;swimlaneBody=0;fillColor=none;collapsible=0;dropTarget=0;points=[[0,0.5],[1,0.5]];portConstraint=eastwest;top=0;left=0;right=0;bottom=0;" vertex="1" parent="XEY-7R-VME7h0qJHm2Rb-133">
          <mxGeometry y="179" width="121" height="22" as="geometry" />
        </mxCell>
        <mxCell id="XEY-7R-VME7h0qJHm2Rb-156" value="index" style="shape=partialRectangle;connectable=0;fillColor=none;top=0;left=0;bottom=0;right=0;align=left;spacingLeft=2;overflow=hidden;fontSize=11;" vertex="1" parent="XEY-7R-VME7h0qJHm2Rb-155">
          <mxGeometry width="48" height="22" as="geometry">
            <mxRectangle width="48" height="22" as="alternateBounds" />
          </mxGeometry>
        </mxCell>
        <mxCell id="XEY-7R-VME7h0qJHm2Rb-157" value="email" style="shape=partialRectangle;connectable=0;fillColor=none;top=0;left=0;bottom=0;right=0;align=left;spacingLeft=2;overflow=hidden;fontSize=11;" vertex="1" parent="XEY-7R-VME7h0qJHm2Rb-155">
          <mxGeometry x="48" width="73" height="22" as="geometry">
            <mxRectangle width="73" height="22" as="alternateBounds" />
          </mxGeometry>
        </mxCell>
        <mxCell id="XEY-7R-VME7h0qJHm2Rb-158" value="Profile" style="shape=table;startSize=25;container=1;collapsible=0;childLayout=tableLayout;fixedRows=1;rowLines=1;fontStyle=1;align=center;resizeLast=1;" vertex="1" parent="1">
          <mxGeometry x="227" y="990" width="175" height="223" as="geometry" />
        </mxCell>
        <mxCell id="XEY-7R-VME7h0qJHm2Rb-159" style="shape=tableRow;horizontal=0;startSize=0;swimlaneHead=0;swimlaneBody=0;fillColor=none;collapsible=0;dropTarget=0;points=[[0,0.5],[1,0.5]];portConstraint=eastwest;top=0;left=0;right=0;bottom=0;" vertex="1" parent="XEY-7R-VME7h0qJHm2Rb-158">
          <mxGeometry y="25" width="175" height="22" as="geometry" />
        </mxCell>
        <mxCell id="XEY-7R-VME7h0qJHm2Rb-160" value="string" style="shape=partialRectangle;connectable=0;fillColor=none;top=0;left=0;bottom=0;right=0;align=left;spacingLeft=2;overflow=hidden;fontSize=11;" vertex="1" parent="XEY-7R-VME7h0qJHm2Rb-159">
          <mxGeometry width="66" height="22" as="geometry">
            <mxRectangle width="66" height="22" as="alternateBounds" />
          </mxGeometry>
        </mxCell>
        <mxCell id="XEY-7R-VME7h0qJHm2Rb-161" value="id" style="shape=partialRectangle;connectable=0;fillColor=none;top=0;left=0;bottom=0;right=0;align=left;spacingLeft=2;overflow=hidden;fontSize=11;" vertex="1" parent="XEY-7R-VME7h0qJHm2Rb-159">
          <mxGeometry x="66" width="109" height="22" as="geometry">
            <mxRectangle width="109" height="22" as="alternateBounds" />
          </mxGeometry>
        </mxCell>
        <mxCell id="XEY-7R-VME7h0qJHm2Rb-162" style="shape=tableRow;horizontal=0;startSize=0;swimlaneHead=0;swimlaneBody=0;fillColor=none;collapsible=0;dropTarget=0;points=[[0,0.5],[1,0.5]];portConstraint=eastwest;top=0;left=0;right=0;bottom=0;" vertex="1" parent="XEY-7R-VME7h0qJHm2Rb-158">
          <mxGeometry y="47" width="175" height="22" as="geometry" />
        </mxCell>
        <mxCell id="XEY-7R-VME7h0qJHm2Rb-163" value="string" style="shape=partialRectangle;connectable=0;fillColor=none;top=0;left=0;bottom=0;right=0;align=left;spacingLeft=2;overflow=hidden;fontSize=11;" vertex="1" parent="XEY-7R-VME7h0qJHm2Rb-162">
          <mxGeometry width="66" height="22" as="geometry">
            <mxRectangle width="66" height="22" as="alternateBounds" />
          </mxGeometry>
        </mxCell>
        <mxCell id="XEY-7R-VME7h0qJHm2Rb-164" value="userId" style="shape=partialRectangle;connectable=0;fillColor=none;top=0;left=0;bottom=0;right=0;align=left;spacingLeft=2;overflow=hidden;fontSize=11;" vertex="1" parent="XEY-7R-VME7h0qJHm2Rb-162">
          <mxGeometry x="66" width="109" height="22" as="geometry">
            <mxRectangle width="109" height="22" as="alternateBounds" />
          </mxGeometry>
        </mxCell>
        <mxCell id="XEY-7R-VME7h0qJHm2Rb-165" style="shape=tableRow;horizontal=0;startSize=0;swimlaneHead=0;swimlaneBody=0;fillColor=none;collapsible=0;dropTarget=0;points=[[0,0.5],[1,0.5]];portConstraint=eastwest;top=0;left=0;right=0;bottom=0;" vertex="1" parent="XEY-7R-VME7h0qJHm2Rb-158">
          <mxGeometry y="69" width="175" height="22" as="geometry" />
        </mxCell>
        <mxCell id="XEY-7R-VME7h0qJHm2Rb-166" value="Deck" style="shape=partialRectangle;connectable=0;fillColor=none;top=0;left=0;bottom=0;right=0;align=left;spacingLeft=2;overflow=hidden;fontSize=11;" vertex="1" parent="XEY-7R-VME7h0qJHm2Rb-165">
          <mxGeometry width="66" height="22" as="geometry">
            <mxRectangle width="66" height="22" as="alternateBounds" />
          </mxGeometry>
        </mxCell>
        <mxCell id="XEY-7R-VME7h0qJHm2Rb-167" value="deck" style="shape=partialRectangle;connectable=0;fillColor=none;top=0;left=0;bottom=0;right=0;align=left;spacingLeft=2;overflow=hidden;fontSize=11;" vertex="1" parent="XEY-7R-VME7h0qJHm2Rb-165">
          <mxGeometry x="66" width="109" height="22" as="geometry">
            <mxRectangle width="109" height="22" as="alternateBounds" />
          </mxGeometry>
        </mxCell>
        <mxCell id="XEY-7R-VME7h0qJHm2Rb-168" style="shape=tableRow;horizontal=0;startSize=0;swimlaneHead=0;swimlaneBody=0;fillColor=none;collapsible=0;dropTarget=0;points=[[0,0.5],[1,0.5]];portConstraint=eastwest;top=0;left=0;right=0;bottom=0;" vertex="1" parent="XEY-7R-VME7h0qJHm2Rb-158">
          <mxGeometry y="91" width="175" height="22" as="geometry" />
        </mxCell>
        <mxCell id="XEY-7R-VME7h0qJHm2Rb-169" value="string" style="shape=partialRectangle;connectable=0;fillColor=none;top=0;left=0;bottom=0;right=0;align=left;spacingLeft=2;overflow=hidden;fontSize=11;" vertex="1" parent="XEY-7R-VME7h0qJHm2Rb-168">
          <mxGeometry width="66" height="22" as="geometry">
            <mxRectangle width="66" height="22" as="alternateBounds" />
          </mxGeometry>
        </mxCell>
        <mxCell id="XEY-7R-VME7h0qJHm2Rb-170" value="kingdomId" style="shape=partialRectangle;connectable=0;fillColor=none;top=0;left=0;bottom=0;right=0;align=left;spacingLeft=2;overflow=hidden;fontSize=11;" vertex="1" parent="XEY-7R-VME7h0qJHm2Rb-168">
          <mxGeometry x="66" width="109" height="22" as="geometry">
            <mxRectangle width="109" height="22" as="alternateBounds" />
          </mxGeometry>
        </mxCell>
        <mxCell id="XEY-7R-VME7h0qJHm2Rb-171" style="shape=tableRow;horizontal=0;startSize=0;swimlaneHead=0;swimlaneBody=0;fillColor=none;collapsible=0;dropTarget=0;points=[[0,0.5],[1,0.5]];portConstraint=eastwest;top=0;left=0;right=0;bottom=0;" vertex="1" parent="XEY-7R-VME7h0qJHm2Rb-158">
          <mxGeometry y="113" width="175" height="22" as="geometry" />
        </mxCell>
        <mxCell id="XEY-7R-VME7h0qJHm2Rb-172" value="string" style="shape=partialRectangle;connectable=0;fillColor=none;top=0;left=0;bottom=0;right=0;align=left;spacingLeft=2;overflow=hidden;fontSize=11;" vertex="1" parent="XEY-7R-VME7h0qJHm2Rb-171">
          <mxGeometry width="66" height="22" as="geometry">
            <mxRectangle width="66" height="22" as="alternateBounds" />
          </mxGeometry>
        </mxCell>
        <mxCell id="XEY-7R-VME7h0qJHm2Rb-173" value="rank" style="shape=partialRectangle;connectable=0;fillColor=none;top=0;left=0;bottom=0;right=0;align=left;spacingLeft=2;overflow=hidden;fontSize=11;" vertex="1" parent="XEY-7R-VME7h0qJHm2Rb-171">
          <mxGeometry x="66" width="109" height="22" as="geometry">
            <mxRectangle width="109" height="22" as="alternateBounds" />
          </mxGeometry>
        </mxCell>
        <mxCell id="XEY-7R-VME7h0qJHm2Rb-174" style="shape=tableRow;horizontal=0;startSize=0;swimlaneHead=0;swimlaneBody=0;fillColor=none;collapsible=0;dropTarget=0;points=[[0,0.5],[1,0.5]];portConstraint=eastwest;top=0;left=0;right=0;bottom=0;" vertex="1" parent="XEY-7R-VME7h0qJHm2Rb-158">
          <mxGeometry y="135" width="175" height="22" as="geometry" />
        </mxCell>
        <mxCell id="XEY-7R-VME7h0qJHm2Rb-175" value="string" style="shape=partialRectangle;connectable=0;fillColor=none;top=0;left=0;bottom=0;right=0;align=left;spacingLeft=2;overflow=hidden;fontSize=11;" vertex="1" parent="XEY-7R-VME7h0qJHm2Rb-174">
          <mxGeometry width="66" height="22" as="geometry">
            <mxRectangle width="66" height="22" as="alternateBounds" />
          </mxGeometry>
        </mxCell>
        <mxCell id="XEY-7R-VME7h0qJHm2Rb-176" value="quote" style="shape=partialRectangle;connectable=0;fillColor=none;top=0;left=0;bottom=0;right=0;align=left;spacingLeft=2;overflow=hidden;fontSize=11;" vertex="1" parent="XEY-7R-VME7h0qJHm2Rb-174">
          <mxGeometry x="66" width="109" height="22" as="geometry">
            <mxRectangle width="109" height="22" as="alternateBounds" />
          </mxGeometry>
        </mxCell>
        <mxCell id="XEY-7R-VME7h0qJHm2Rb-177" style="shape=tableRow;horizontal=0;startSize=0;swimlaneHead=0;swimlaneBody=0;fillColor=none;collapsible=0;dropTarget=0;points=[[0,0.5],[1,0.5]];portConstraint=eastwest;top=0;left=0;right=0;bottom=0;" vertex="1" parent="XEY-7R-VME7h0qJHm2Rb-158">
          <mxGeometry y="157" width="175" height="22" as="geometry" />
        </mxCell>
        <mxCell id="XEY-7R-VME7h0qJHm2Rb-178" value="int" style="shape=partialRectangle;connectable=0;fillColor=none;top=0;left=0;bottom=0;right=0;align=left;spacingLeft=2;overflow=hidden;fontSize=11;" vertex="1" parent="XEY-7R-VME7h0qJHm2Rb-177">
          <mxGeometry width="66" height="22" as="geometry">
            <mxRectangle width="66" height="22" as="alternateBounds" />
          </mxGeometry>
        </mxCell>
        <mxCell id="XEY-7R-VME7h0qJHm2Rb-179" value="diamondAmount" style="shape=partialRectangle;connectable=0;fillColor=none;top=0;left=0;bottom=0;right=0;align=left;spacingLeft=2;overflow=hidden;fontSize=11;" vertex="1" parent="XEY-7R-VME7h0qJHm2Rb-177">
          <mxGeometry x="66" width="109" height="22" as="geometry">
            <mxRectangle width="109" height="22" as="alternateBounds" />
          </mxGeometry>
        </mxCell>
        <mxCell id="XEY-7R-VME7h0qJHm2Rb-180" style="shape=tableRow;horizontal=0;startSize=0;swimlaneHead=0;swimlaneBody=0;fillColor=none;collapsible=0;dropTarget=0;points=[[0,0.5],[1,0.5]];portConstraint=eastwest;top=0;left=0;right=0;bottom=0;" vertex="1" parent="XEY-7R-VME7h0qJHm2Rb-158">
          <mxGeometry y="179" width="175" height="22" as="geometry" />
        </mxCell>
        <mxCell id="XEY-7R-VME7h0qJHm2Rb-181" value="int" style="shape=partialRectangle;connectable=0;fillColor=none;top=0;left=0;bottom=0;right=0;align=left;spacingLeft=2;overflow=hidden;fontSize=11;" vertex="1" parent="XEY-7R-VME7h0qJHm2Rb-180">
          <mxGeometry width="66" height="22" as="geometry">
            <mxRectangle width="66" height="22" as="alternateBounds" />
          </mxGeometry>
        </mxCell>
        <mxCell id="XEY-7R-VME7h0qJHm2Rb-182" value="goldAmount" style="shape=partialRectangle;connectable=0;fillColor=none;top=0;left=0;bottom=0;right=0;align=left;spacingLeft=2;overflow=hidden;fontSize=11;" vertex="1" parent="XEY-7R-VME7h0qJHm2Rb-180">
          <mxGeometry x="66" width="109" height="22" as="geometry">
            <mxRectangle width="109" height="22" as="alternateBounds" />
          </mxGeometry>
        </mxCell>
        <mxCell id="XEY-7R-VME7h0qJHm2Rb-183" style="shape=tableRow;horizontal=0;startSize=0;swimlaneHead=0;swimlaneBody=0;fillColor=none;collapsible=0;dropTarget=0;points=[[0,0.5],[1,0.5]];portConstraint=eastwest;top=0;left=0;right=0;bottom=0;" vertex="1" parent="XEY-7R-VME7h0qJHm2Rb-158">
          <mxGeometry y="201" width="175" height="22" as="geometry" />
        </mxCell>
        <mxCell id="XEY-7R-VME7h0qJHm2Rb-184" value="Equipment[]" style="shape=partialRectangle;connectable=0;fillColor=none;top=0;left=0;bottom=0;right=0;align=left;spacingLeft=2;overflow=hidden;fontSize=11;" vertex="1" parent="XEY-7R-VME7h0qJHm2Rb-183">
          <mxGeometry width="66" height="22" as="geometry">
            <mxRectangle width="66" height="22" as="alternateBounds" />
          </mxGeometry>
        </mxCell>
        <mxCell id="XEY-7R-VME7h0qJHm2Rb-185" value="equipments" style="shape=partialRectangle;connectable=0;fillColor=none;top=0;left=0;bottom=0;right=0;align=left;spacingLeft=2;overflow=hidden;fontSize=11;" vertex="1" parent="XEY-7R-VME7h0qJHm2Rb-183">
          <mxGeometry x="66" width="109" height="22" as="geometry">
            <mxRectangle width="109" height="22" as="alternateBounds" />
          </mxGeometry>
        </mxCell>
        <mxCell id="XEY-7R-VME7h0qJHm2Rb-186" value="Deck" style="shape=table;startSize=25;container=1;collapsible=0;childLayout=tableLayout;fixedRows=1;rowLines=1;fontStyle=1;align=center;resizeLast=1;" vertex="1" parent="1">
          <mxGeometry x="128" y="1323" width="143" height="91" as="geometry" />
        </mxCell>
        <mxCell id="XEY-7R-VME7h0qJHm2Rb-187" style="shape=tableRow;horizontal=0;startSize=0;swimlaneHead=0;swimlaneBody=0;fillColor=none;collapsible=0;dropTarget=0;points=[[0,0.5],[1,0.5]];portConstraint=eastwest;top=0;left=0;right=0;bottom=0;" vertex="1" parent="XEY-7R-VME7h0qJHm2Rb-186">
          <mxGeometry y="25" width="143" height="22" as="geometry" />
        </mxCell>
        <mxCell id="XEY-7R-VME7h0qJHm2Rb-188" value="string" style="shape=partialRectangle;connectable=0;fillColor=none;top=0;left=0;bottom=0;right=0;align=left;spacingLeft=2;overflow=hidden;fontSize=11;" vertex="1" parent="XEY-7R-VME7h0qJHm2Rb-187">
          <mxGeometry width="60" height="22" as="geometry">
            <mxRectangle width="60" height="22" as="alternateBounds" />
          </mxGeometry>
        </mxCell>
        <mxCell id="XEY-7R-VME7h0qJHm2Rb-189" value="id" style="shape=partialRectangle;connectable=0;fillColor=none;top=0;left=0;bottom=0;right=0;align=left;spacingLeft=2;overflow=hidden;fontSize=11;" vertex="1" parent="XEY-7R-VME7h0qJHm2Rb-187">
          <mxGeometry x="60" width="83" height="22" as="geometry">
            <mxRectangle width="83" height="22" as="alternateBounds" />
          </mxGeometry>
        </mxCell>
        <mxCell id="XEY-7R-VME7h0qJHm2Rb-190" style="shape=tableRow;horizontal=0;startSize=0;swimlaneHead=0;swimlaneBody=0;fillColor=none;collapsible=0;dropTarget=0;points=[[0,0.5],[1,0.5]];portConstraint=eastwest;top=0;left=0;right=0;bottom=0;" vertex="1" parent="XEY-7R-VME7h0qJHm2Rb-186">
          <mxGeometry y="47" width="143" height="22" as="geometry" />
        </mxCell>
        <mxCell id="XEY-7R-VME7h0qJHm2Rb-191" value="UserCard[]" style="shape=partialRectangle;connectable=0;fillColor=none;top=0;left=0;bottom=0;right=0;align=left;spacingLeft=2;overflow=hidden;fontSize=11;" vertex="1" parent="XEY-7R-VME7h0qJHm2Rb-190">
          <mxGeometry width="60" height="22" as="geometry">
            <mxRectangle width="60" height="22" as="alternateBounds" />
          </mxGeometry>
        </mxCell>
        <mxCell id="XEY-7R-VME7h0qJHm2Rb-192" value="cards" style="shape=partialRectangle;connectable=0;fillColor=none;top=0;left=0;bottom=0;right=0;align=left;spacingLeft=2;overflow=hidden;fontSize=11;" vertex="1" parent="XEY-7R-VME7h0qJHm2Rb-190">
          <mxGeometry x="60" width="83" height="22" as="geometry">
            <mxRectangle width="83" height="22" as="alternateBounds" />
          </mxGeometry>
        </mxCell>
        <mxCell id="XEY-7R-VME7h0qJHm2Rb-193" style="shape=tableRow;horizontal=0;startSize=0;swimlaneHead=0;swimlaneBody=0;fillColor=none;collapsible=0;dropTarget=0;points=[[0,0.5],[1,0.5]];portConstraint=eastwest;top=0;left=0;right=0;bottom=0;" vertex="1" parent="XEY-7R-VME7h0qJHm2Rb-186">
          <mxGeometry y="69" width="143" height="22" as="geometry" />
        </mxCell>
        <mxCell id="XEY-7R-VME7h0qJHm2Rb-194" value="int" style="shape=partialRectangle;connectable=0;fillColor=none;top=0;left=0;bottom=0;right=0;align=left;spacingLeft=2;overflow=hidden;fontSize=11;" vertex="1" parent="XEY-7R-VME7h0qJHm2Rb-193">
          <mxGeometry width="60" height="22" as="geometry">
            <mxRectangle width="60" height="22" as="alternateBounds" />
          </mxGeometry>
        </mxCell>
        <mxCell id="XEY-7R-VME7h0qJHm2Rb-195" value="totalPower" style="shape=partialRectangle;connectable=0;fillColor=none;top=0;left=0;bottom=0;right=0;align=left;spacingLeft=2;overflow=hidden;fontSize=11;" vertex="1" parent="XEY-7R-VME7h0qJHm2Rb-193">
          <mxGeometry x="60" width="83" height="22" as="geometry">
            <mxRectangle width="83" height="22" as="alternateBounds" />
          </mxGeometry>
        </mxCell>
        <mxCell id="XEY-7R-VME7h0qJHm2Rb-196" value="UserCard" style="shape=table;startSize=25;container=1;collapsible=0;childLayout=tableLayout;fixedRows=1;rowLines=1;fontStyle=1;align=center;resizeLast=1;" vertex="1" parent="1">
          <mxGeometry x="122" y="1524" width="155" height="157" as="geometry" />
        </mxCell>
        <mxCell id="XEY-7R-VME7h0qJHm2Rb-197" style="shape=tableRow;horizontal=0;startSize=0;swimlaneHead=0;swimlaneBody=0;fillColor=none;collapsible=0;dropTarget=0;points=[[0,0.5],[1,0.5]];portConstraint=eastwest;top=0;left=0;right=0;bottom=0;" vertex="1" parent="XEY-7R-VME7h0qJHm2Rb-196">
          <mxGeometry y="25" width="155" height="22" as="geometry" />
        </mxCell>
        <mxCell id="XEY-7R-VME7h0qJHm2Rb-198" value="string" style="shape=partialRectangle;connectable=0;fillColor=none;top=0;left=0;bottom=0;right=0;align=left;spacingLeft=2;overflow=hidden;fontSize=11;" vertex="1" parent="XEY-7R-VME7h0qJHm2Rb-197">
          <mxGeometry width="48" height="22" as="geometry">
            <mxRectangle width="48" height="22" as="alternateBounds" />
          </mxGeometry>
        </mxCell>
        <mxCell id="XEY-7R-VME7h0qJHm2Rb-199" value="cardId" style="shape=partialRectangle;connectable=0;fillColor=none;top=0;left=0;bottom=0;right=0;align=left;spacingLeft=2;overflow=hidden;fontSize=11;" vertex="1" parent="XEY-7R-VME7h0qJHm2Rb-197">
          <mxGeometry x="48" width="107" height="22" as="geometry">
            <mxRectangle width="107" height="22" as="alternateBounds" />
          </mxGeometry>
        </mxCell>
        <mxCell id="XEY-7R-VME7h0qJHm2Rb-200" style="shape=tableRow;horizontal=0;startSize=0;swimlaneHead=0;swimlaneBody=0;fillColor=none;collapsible=0;dropTarget=0;points=[[0,0.5],[1,0.5]];portConstraint=eastwest;top=0;left=0;right=0;bottom=0;" vertex="1" parent="XEY-7R-VME7h0qJHm2Rb-196">
          <mxGeometry y="47" width="155" height="22" as="geometry" />
        </mxCell>
        <mxCell id="XEY-7R-VME7h0qJHm2Rb-201" value="int" style="shape=partialRectangle;connectable=0;fillColor=none;top=0;left=0;bottom=0;right=0;align=left;spacingLeft=2;overflow=hidden;fontSize=11;" vertex="1" parent="XEY-7R-VME7h0qJHm2Rb-200">
          <mxGeometry width="48" height="22" as="geometry">
            <mxRectangle width="48" height="22" as="alternateBounds" />
          </mxGeometry>
        </mxCell>
        <mxCell id="XEY-7R-VME7h0qJHm2Rb-202" value="attack" style="shape=partialRectangle;connectable=0;fillColor=none;top=0;left=0;bottom=0;right=0;align=left;spacingLeft=2;overflow=hidden;fontSize=11;" vertex="1" parent="XEY-7R-VME7h0qJHm2Rb-200">
          <mxGeometry x="48" width="107" height="22" as="geometry">
            <mxRectangle width="107" height="22" as="alternateBounds" />
          </mxGeometry>
        </mxCell>
        <mxCell id="XEY-7R-VME7h0qJHm2Rb-203" style="shape=tableRow;horizontal=0;startSize=0;swimlaneHead=0;swimlaneBody=0;fillColor=none;collapsible=0;dropTarget=0;points=[[0,0.5],[1,0.5]];portConstraint=eastwest;top=0;left=0;right=0;bottom=0;" vertex="1" parent="XEY-7R-VME7h0qJHm2Rb-196">
          <mxGeometry y="69" width="155" height="22" as="geometry" />
        </mxCell>
        <mxCell id="XEY-7R-VME7h0qJHm2Rb-204" value="int" style="shape=partialRectangle;connectable=0;fillColor=none;top=0;left=0;bottom=0;right=0;align=left;spacingLeft=2;overflow=hidden;fontSize=11;" vertex="1" parent="XEY-7R-VME7h0qJHm2Rb-203">
          <mxGeometry width="48" height="22" as="geometry">
            <mxRectangle width="48" height="22" as="alternateBounds" />
          </mxGeometry>
        </mxCell>
        <mxCell id="XEY-7R-VME7h0qJHm2Rb-205" value="defence" style="shape=partialRectangle;connectable=0;fillColor=none;top=0;left=0;bottom=0;right=0;align=left;spacingLeft=2;overflow=hidden;fontSize=11;" vertex="1" parent="XEY-7R-VME7h0qJHm2Rb-203">
          <mxGeometry x="48" width="107" height="22" as="geometry">
            <mxRectangle width="107" height="22" as="alternateBounds" />
          </mxGeometry>
        </mxCell>
        <mxCell id="XEY-7R-VME7h0qJHm2Rb-206" style="shape=tableRow;horizontal=0;startSize=0;swimlaneHead=0;swimlaneBody=0;fillColor=none;collapsible=0;dropTarget=0;points=[[0,0.5],[1,0.5]];portConstraint=eastwest;top=0;left=0;right=0;bottom=0;" vertex="1" parent="XEY-7R-VME7h0qJHm2Rb-196">
          <mxGeometry y="91" width="155" height="22" as="geometry" />
        </mxCell>
        <mxCell id="XEY-7R-VME7h0qJHm2Rb-207" value="int" style="shape=partialRectangle;connectable=0;fillColor=none;top=0;left=0;bottom=0;right=0;align=left;spacingLeft=2;overflow=hidden;fontSize=11;" vertex="1" parent="XEY-7R-VME7h0qJHm2Rb-206">
          <mxGeometry width="48" height="22" as="geometry">
            <mxRectangle width="48" height="22" as="alternateBounds" />
          </mxGeometry>
        </mxCell>
        <mxCell id="XEY-7R-VME7h0qJHm2Rb-208" value="xp" style="shape=partialRectangle;connectable=0;fillColor=none;top=0;left=0;bottom=0;right=0;align=left;spacingLeft=2;overflow=hidden;fontSize=11;" vertex="1" parent="XEY-7R-VME7h0qJHm2Rb-206">
          <mxGeometry x="48" width="107" height="22" as="geometry">
            <mxRectangle width="107" height="22" as="alternateBounds" />
          </mxGeometry>
        </mxCell>
        <mxCell id="XEY-7R-VME7h0qJHm2Rb-209" style="shape=tableRow;horizontal=0;startSize=0;swimlaneHead=0;swimlaneBody=0;fillColor=none;collapsible=0;dropTarget=0;points=[[0,0.5],[1,0.5]];portConstraint=eastwest;top=0;left=0;right=0;bottom=0;" vertex="1" parent="XEY-7R-VME7h0qJHm2Rb-196">
          <mxGeometry y="113" width="155" height="22" as="geometry" />
        </mxCell>
        <mxCell id="XEY-7R-VME7h0qJHm2Rb-210" value="int" style="shape=partialRectangle;connectable=0;fillColor=none;top=0;left=0;bottom=0;right=0;align=left;spacingLeft=2;overflow=hidden;fontSize=11;" vertex="1" parent="XEY-7R-VME7h0qJHm2Rb-209">
          <mxGeometry width="48" height="22" as="geometry">
            <mxRectangle width="48" height="22" as="alternateBounds" />
          </mxGeometry>
        </mxCell>
        <mxCell id="XEY-7R-VME7h0qJHm2Rb-211" value="level" style="shape=partialRectangle;connectable=0;fillColor=none;top=0;left=0;bottom=0;right=0;align=left;spacingLeft=2;overflow=hidden;fontSize=11;" vertex="1" parent="XEY-7R-VME7h0qJHm2Rb-209">
          <mxGeometry x="48" width="107" height="22" as="geometry">
            <mxRectangle width="107" height="22" as="alternateBounds" />
          </mxGeometry>
        </mxCell>
        <mxCell id="XEY-7R-VME7h0qJHm2Rb-212" style="shape=tableRow;horizontal=0;startSize=0;swimlaneHead=0;swimlaneBody=0;fillColor=none;collapsible=0;dropTarget=0;points=[[0,0.5],[1,0.5]];portConstraint=eastwest;top=0;left=0;right=0;bottom=0;" vertex="1" parent="XEY-7R-VME7h0qJHm2Rb-196">
          <mxGeometry y="135" width="155" height="22" as="geometry" />
        </mxCell>
        <mxCell id="XEY-7R-VME7h0qJHm2Rb-213" value="string[]" style="shape=partialRectangle;connectable=0;fillColor=none;top=0;left=0;bottom=0;right=0;align=left;spacingLeft=2;overflow=hidden;fontSize=11;" vertex="1" parent="XEY-7R-VME7h0qJHm2Rb-212">
          <mxGeometry width="48" height="22" as="geometry">
            <mxRectangle width="48" height="22" as="alternateBounds" />
          </mxGeometry>
        </mxCell>
        <mxCell id="XEY-7R-VME7h0qJHm2Rb-214" value="unlockedAbilities" style="shape=partialRectangle;connectable=0;fillColor=none;top=0;left=0;bottom=0;right=0;align=left;spacingLeft=2;overflow=hidden;fontSize=11;" vertex="1" parent="XEY-7R-VME7h0qJHm2Rb-212">
          <mxGeometry x="48" width="107" height="22" as="geometry">
            <mxRectangle width="107" height="22" as="alternateBounds" />
          </mxGeometry>
        </mxCell>
        <mxCell id="XEY-7R-VME7h0qJHm2Rb-215" value="Card" style="shape=table;startSize=25;container=1;collapsible=0;childLayout=tableLayout;fixedRows=1;rowLines=1;fontStyle=1;align=center;resizeLast=1;" vertex="1" parent="1">
          <mxGeometry x="20" y="1780" width="128" height="201" as="geometry" />
        </mxCell>
        <mxCell id="XEY-7R-VME7h0qJHm2Rb-216" style="shape=tableRow;horizontal=0;startSize=0;swimlaneHead=0;swimlaneBody=0;fillColor=none;collapsible=0;dropTarget=0;points=[[0,0.5],[1,0.5]];portConstraint=eastwest;top=0;left=0;right=0;bottom=0;" vertex="1" parent="XEY-7R-VME7h0qJHm2Rb-215">
          <mxGeometry y="25" width="128" height="22" as="geometry" />
        </mxCell>
        <mxCell id="XEY-7R-VME7h0qJHm2Rb-217" value="string" style="shape=partialRectangle;connectable=0;fillColor=none;top=0;left=0;bottom=0;right=0;align=left;spacingLeft=2;overflow=hidden;fontSize=11;" vertex="1" parent="XEY-7R-VME7h0qJHm2Rb-216">
          <mxGeometry width="48" height="22" as="geometry">
            <mxRectangle width="48" height="22" as="alternateBounds" />
          </mxGeometry>
        </mxCell>
        <mxCell id="XEY-7R-VME7h0qJHm2Rb-218" value="name" style="shape=partialRectangle;connectable=0;fillColor=none;top=0;left=0;bottom=0;right=0;align=left;spacingLeft=2;overflow=hidden;fontSize=11;" vertex="1" parent="XEY-7R-VME7h0qJHm2Rb-216">
          <mxGeometry x="48" width="80" height="22" as="geometry">
            <mxRectangle width="80" height="22" as="alternateBounds" />
          </mxGeometry>
        </mxCell>
        <mxCell id="XEY-7R-VME7h0qJHm2Rb-219" style="shape=tableRow;horizontal=0;startSize=0;swimlaneHead=0;swimlaneBody=0;fillColor=none;collapsible=0;dropTarget=0;points=[[0,0.5],[1,0.5]];portConstraint=eastwest;top=0;left=0;right=0;bottom=0;" vertex="1" parent="XEY-7R-VME7h0qJHm2Rb-215">
          <mxGeometry y="47" width="128" height="22" as="geometry" />
        </mxCell>
        <mxCell id="XEY-7R-VME7h0qJHm2Rb-220" value="string" style="shape=partialRectangle;connectable=0;fillColor=none;top=0;left=0;bottom=0;right=0;align=left;spacingLeft=2;overflow=hidden;fontSize=11;" vertex="1" parent="XEY-7R-VME7h0qJHm2Rb-219">
          <mxGeometry width="48" height="22" as="geometry">
            <mxRectangle width="48" height="22" as="alternateBounds" />
          </mxGeometry>
        </mxCell>
        <mxCell id="XEY-7R-VME7h0qJHm2Rb-221" value="type" style="shape=partialRectangle;connectable=0;fillColor=none;top=0;left=0;bottom=0;right=0;align=left;spacingLeft=2;overflow=hidden;fontSize=11;" vertex="1" parent="XEY-7R-VME7h0qJHm2Rb-219">
          <mxGeometry x="48" width="80" height="22" as="geometry">
            <mxRectangle width="80" height="22" as="alternateBounds" />
          </mxGeometry>
        </mxCell>
        <mxCell id="XEY-7R-VME7h0qJHm2Rb-222" style="shape=tableRow;horizontal=0;startSize=0;swimlaneHead=0;swimlaneBody=0;fillColor=none;collapsible=0;dropTarget=0;points=[[0,0.5],[1,0.5]];portConstraint=eastwest;top=0;left=0;right=0;bottom=0;" vertex="1" parent="XEY-7R-VME7h0qJHm2Rb-215">
          <mxGeometry y="69" width="128" height="22" as="geometry" />
        </mxCell>
        <mxCell id="XEY-7R-VME7h0qJHm2Rb-223" value="int" style="shape=partialRectangle;connectable=0;fillColor=none;top=0;left=0;bottom=0;right=0;align=left;spacingLeft=2;overflow=hidden;fontSize=11;" vertex="1" parent="XEY-7R-VME7h0qJHm2Rb-222">
          <mxGeometry width="48" height="22" as="geometry">
            <mxRectangle width="48" height="22" as="alternateBounds" />
          </mxGeometry>
        </mxCell>
        <mxCell id="XEY-7R-VME7h0qJHm2Rb-224" value="baseAttack" style="shape=partialRectangle;connectable=0;fillColor=none;top=0;left=0;bottom=0;right=0;align=left;spacingLeft=2;overflow=hidden;fontSize=11;" vertex="1" parent="XEY-7R-VME7h0qJHm2Rb-222">
          <mxGeometry x="48" width="80" height="22" as="geometry">
            <mxRectangle width="80" height="22" as="alternateBounds" />
          </mxGeometry>
        </mxCell>
        <mxCell id="XEY-7R-VME7h0qJHm2Rb-225" style="shape=tableRow;horizontal=0;startSize=0;swimlaneHead=0;swimlaneBody=0;fillColor=none;collapsible=0;dropTarget=0;points=[[0,0.5],[1,0.5]];portConstraint=eastwest;top=0;left=0;right=0;bottom=0;" vertex="1" parent="XEY-7R-VME7h0qJHm2Rb-215">
          <mxGeometry y="91" width="128" height="22" as="geometry" />
        </mxCell>
        <mxCell id="XEY-7R-VME7h0qJHm2Rb-226" value="int" style="shape=partialRectangle;connectable=0;fillColor=none;top=0;left=0;bottom=0;right=0;align=left;spacingLeft=2;overflow=hidden;fontSize=11;" vertex="1" parent="XEY-7R-VME7h0qJHm2Rb-225">
          <mxGeometry width="48" height="22" as="geometry">
            <mxRectangle width="48" height="22" as="alternateBounds" />
          </mxGeometry>
        </mxCell>
        <mxCell id="XEY-7R-VME7h0qJHm2Rb-227" value="baseBlood" style="shape=partialRectangle;connectable=0;fillColor=none;top=0;left=0;bottom=0;right=0;align=left;spacingLeft=2;overflow=hidden;fontSize=11;" vertex="1" parent="XEY-7R-VME7h0qJHm2Rb-225">
          <mxGeometry x="48" width="80" height="22" as="geometry">
            <mxRectangle width="80" height="22" as="alternateBounds" />
          </mxGeometry>
        </mxCell>
        <mxCell id="XEY-7R-VME7h0qJHm2Rb-228" style="shape=tableRow;horizontal=0;startSize=0;swimlaneHead=0;swimlaneBody=0;fillColor=none;collapsible=0;dropTarget=0;points=[[0,0.5],[1,0.5]];portConstraint=eastwest;top=0;left=0;right=0;bottom=0;" vertex="1" parent="XEY-7R-VME7h0qJHm2Rb-215">
          <mxGeometry y="113" width="128" height="22" as="geometry" />
        </mxCell>
        <mxCell id="XEY-7R-VME7h0qJHm2Rb-229" value="string[]" style="shape=partialRectangle;connectable=0;fillColor=none;top=0;left=0;bottom=0;right=0;align=left;spacingLeft=2;overflow=hidden;fontSize=11;" vertex="1" parent="XEY-7R-VME7h0qJHm2Rb-228">
          <mxGeometry width="48" height="22" as="geometry">
            <mxRectangle width="48" height="22" as="alternateBounds" />
          </mxGeometry>
        </mxCell>
        <mxCell id="XEY-7R-VME7h0qJHm2Rb-230" value="abilities" style="shape=partialRectangle;connectable=0;fillColor=none;top=0;left=0;bottom=0;right=0;align=left;spacingLeft=2;overflow=hidden;fontSize=11;" vertex="1" parent="XEY-7R-VME7h0qJHm2Rb-228">
          <mxGeometry x="48" width="80" height="22" as="geometry">
            <mxRectangle width="80" height="22" as="alternateBounds" />
          </mxGeometry>
        </mxCell>
        <mxCell id="XEY-7R-VME7h0qJHm2Rb-231" style="shape=tableRow;horizontal=0;startSize=0;swimlaneHead=0;swimlaneBody=0;fillColor=none;collapsible=0;dropTarget=0;points=[[0,0.5],[1,0.5]];portConstraint=eastwest;top=0;left=0;right=0;bottom=0;" vertex="1" parent="XEY-7R-VME7h0qJHm2Rb-215">
          <mxGeometry y="135" width="128" height="22" as="geometry" />
        </mxCell>
        <mxCell id="XEY-7R-VME7h0qJHm2Rb-232" value="int" style="shape=partialRectangle;connectable=0;fillColor=none;top=0;left=0;bottom=0;right=0;align=left;spacingLeft=2;overflow=hidden;fontSize=11;" vertex="1" parent="XEY-7R-VME7h0qJHm2Rb-231">
          <mxGeometry width="48" height="22" as="geometry">
            <mxRectangle width="48" height="22" as="alternateBounds" />
          </mxGeometry>
        </mxCell>
        <mxCell id="XEY-7R-VME7h0qJHm2Rb-233" value="price" style="shape=partialRectangle;connectable=0;fillColor=none;top=0;left=0;bottom=0;right=0;align=left;spacingLeft=2;overflow=hidden;fontSize=11;" vertex="1" parent="XEY-7R-VME7h0qJHm2Rb-231">
          <mxGeometry x="48" width="80" height="22" as="geometry">
            <mxRectangle width="80" height="22" as="alternateBounds" />
          </mxGeometry>
        </mxCell>
        <mxCell id="XEY-7R-VME7h0qJHm2Rb-234" style="shape=tableRow;horizontal=0;startSize=0;swimlaneHead=0;swimlaneBody=0;fillColor=none;collapsible=0;dropTarget=0;points=[[0,0.5],[1,0.5]];portConstraint=eastwest;top=0;left=0;right=0;bottom=0;" vertex="1" parent="XEY-7R-VME7h0qJHm2Rb-215">
          <mxGeometry y="157" width="128" height="22" as="geometry" />
        </mxCell>
        <mxCell id="XEY-7R-VME7h0qJHm2Rb-235" value="string" style="shape=partialRectangle;connectable=0;fillColor=none;top=0;left=0;bottom=0;right=0;align=left;spacingLeft=2;overflow=hidden;fontSize=11;" vertex="1" parent="XEY-7R-VME7h0qJHm2Rb-234">
          <mxGeometry width="48" height="22" as="geometry">
            <mxRectangle width="48" height="22" as="alternateBounds" />
          </mxGeometry>
        </mxCell>
        <mxCell id="XEY-7R-VME7h0qJHm2Rb-236" value="description" style="shape=partialRectangle;connectable=0;fillColor=none;top=0;left=0;bottom=0;right=0;align=left;spacingLeft=2;overflow=hidden;fontSize=11;" vertex="1" parent="XEY-7R-VME7h0qJHm2Rb-234">
          <mxGeometry x="48" width="80" height="22" as="geometry">
            <mxRectangle width="80" height="22" as="alternateBounds" />
          </mxGeometry>
        </mxCell>
        <mxCell id="XEY-7R-VME7h0qJHm2Rb-237" style="shape=tableRow;horizontal=0;startSize=0;swimlaneHead=0;swimlaneBody=0;fillColor=none;collapsible=0;dropTarget=0;points=[[0,0.5],[1,0.5]];portConstraint=eastwest;top=0;left=0;right=0;bottom=0;" vertex="1" parent="XEY-7R-VME7h0qJHm2Rb-215">
          <mxGeometry y="179" width="128" height="22" as="geometry" />
        </mxCell>
        <mxCell id="XEY-7R-VME7h0qJHm2Rb-238" value="index" style="shape=partialRectangle;connectable=0;fillColor=none;top=0;left=0;bottom=0;right=0;align=left;spacingLeft=2;overflow=hidden;fontSize=11;" vertex="1" parent="XEY-7R-VME7h0qJHm2Rb-237">
          <mxGeometry width="48" height="22" as="geometry">
            <mxRectangle width="48" height="22" as="alternateBounds" />
          </mxGeometry>
        </mxCell>
        <mxCell id="XEY-7R-VME7h0qJHm2Rb-239" value="name" style="shape=partialRectangle;connectable=0;fillColor=none;top=0;left=0;bottom=0;right=0;align=left;spacingLeft=2;overflow=hidden;fontSize=11;" vertex="1" parent="XEY-7R-VME7h0qJHm2Rb-237">
          <mxGeometry x="48" width="80" height="22" as="geometry">
            <mxRectangle width="80" height="22" as="alternateBounds" />
          </mxGeometry>
        </mxCell>
        <mxCell id="XEY-7R-VME7h0qJHm2Rb-240" value="Ability" style="shape=table;startSize=25;container=1;collapsible=0;childLayout=tableLayout;fixedRows=1;rowLines=1;fontStyle=1;align=center;resizeLast=1;" vertex="1" parent="1">
          <mxGeometry x="248" y="1835" width="134" height="91" as="geometry" />
        </mxCell>
        <mxCell id="XEY-7R-VME7h0qJHm2Rb-241" style="shape=tableRow;horizontal=0;startSize=0;swimlaneHead=0;swimlaneBody=0;fillColor=none;collapsible=0;dropTarget=0;points=[[0,0.5],[1,0.5]];portConstraint=eastwest;top=0;left=0;right=0;bottom=0;" vertex="1" parent="XEY-7R-VME7h0qJHm2Rb-240">
          <mxGeometry y="25" width="134" height="22" as="geometry" />
        </mxCell>
        <mxCell id="XEY-7R-VME7h0qJHm2Rb-242" value="int" style="shape=partialRectangle;connectable=0;fillColor=none;top=0;left=0;bottom=0;right=0;align=left;spacingLeft=2;overflow=hidden;fontSize=11;" vertex="1" parent="XEY-7R-VME7h0qJHm2Rb-241">
          <mxGeometry width="36" height="22" as="geometry">
            <mxRectangle width="36" height="22" as="alternateBounds" />
          </mxGeometry>
        </mxCell>
        <mxCell id="XEY-7R-VME7h0qJHm2Rb-243" value="id" style="shape=partialRectangle;connectable=0;fillColor=none;top=0;left=0;bottom=0;right=0;align=left;spacingLeft=2;overflow=hidden;fontSize=11;" vertex="1" parent="XEY-7R-VME7h0qJHm2Rb-241">
          <mxGeometry x="36" width="98" height="22" as="geometry">
            <mxRectangle width="98" height="22" as="alternateBounds" />
          </mxGeometry>
        </mxCell>
        <mxCell id="XEY-7R-VME7h0qJHm2Rb-244" style="shape=tableRow;horizontal=0;startSize=0;swimlaneHead=0;swimlaneBody=0;fillColor=none;collapsible=0;dropTarget=0;points=[[0,0.5],[1,0.5]];portConstraint=eastwest;top=0;left=0;right=0;bottom=0;" vertex="1" parent="XEY-7R-VME7h0qJHm2Rb-240">
          <mxGeometry y="47" width="134" height="22" as="geometry" />
        </mxCell>
        <mxCell id="XEY-7R-VME7h0qJHm2Rb-245" value="string" style="shape=partialRectangle;connectable=0;fillColor=none;top=0;left=0;bottom=0;right=0;align=left;spacingLeft=2;overflow=hidden;fontSize=11;" vertex="1" parent="XEY-7R-VME7h0qJHm2Rb-244">
          <mxGeometry width="36" height="22" as="geometry">
            <mxRectangle width="36" height="22" as="alternateBounds" />
          </mxGeometry>
        </mxCell>
        <mxCell id="XEY-7R-VME7h0qJHm2Rb-246" value="functionName" style="shape=partialRectangle;connectable=0;fillColor=none;top=0;left=0;bottom=0;right=0;align=left;spacingLeft=2;overflow=hidden;fontSize=11;" vertex="1" parent="XEY-7R-VME7h0qJHm2Rb-244">
          <mxGeometry x="36" width="98" height="22" as="geometry">
            <mxRectangle width="98" height="22" as="alternateBounds" />
          </mxGeometry>
        </mxCell>
        <mxCell id="XEY-7R-VME7h0qJHm2Rb-247" style="shape=tableRow;horizontal=0;startSize=0;swimlaneHead=0;swimlaneBody=0;fillColor=none;collapsible=0;dropTarget=0;points=[[0,0.5],[1,0.5]];portConstraint=eastwest;top=0;left=0;right=0;bottom=0;" vertex="1" parent="XEY-7R-VME7h0qJHm2Rb-240">
          <mxGeometry y="69" width="134" height="22" as="geometry" />
        </mxCell>
        <mxCell id="XEY-7R-VME7h0qJHm2Rb-248" value="int" style="shape=partialRectangle;connectable=0;fillColor=none;top=0;left=0;bottom=0;right=0;align=left;spacingLeft=2;overflow=hidden;fontSize=11;" vertex="1" parent="XEY-7R-VME7h0qJHm2Rb-247">
          <mxGeometry width="36" height="22" as="geometry">
            <mxRectangle width="36" height="22" as="alternateBounds" />
          </mxGeometry>
        </mxCell>
        <mxCell id="XEY-7R-VME7h0qJHm2Rb-249" value="power" style="shape=partialRectangle;connectable=0;fillColor=none;top=0;left=0;bottom=0;right=0;align=left;spacingLeft=2;overflow=hidden;fontSize=11;" vertex="1" parent="XEY-7R-VME7h0qJHm2Rb-247">
          <mxGeometry x="36" width="98" height="22" as="geometry">
            <mxRectangle width="98" height="22" as="alternateBounds" />
          </mxGeometry>
        </mxCell>
        <mxCell id="XEY-7R-VME7h0qJHm2Rb-250" value="Equipment" style="shape=table;startSize=25;container=1;collapsible=0;childLayout=tableLayout;fixedRows=1;rowLines=1;fontStyle=1;align=center;resizeLast=1;" vertex="1" parent="1">
          <mxGeometry x="370" y="1312" width="120" height="113" as="geometry" />
        </mxCell>
        <mxCell id="XEY-7R-VME7h0qJHm2Rb-251" style="shape=tableRow;horizontal=0;startSize=0;swimlaneHead=0;swimlaneBody=0;fillColor=none;collapsible=0;dropTarget=0;points=[[0,0.5],[1,0.5]];portConstraint=eastwest;top=0;left=0;right=0;bottom=0;" vertex="1" parent="XEY-7R-VME7h0qJHm2Rb-250">
          <mxGeometry y="25" width="120" height="22" as="geometry" />
        </mxCell>
        <mxCell id="XEY-7R-VME7h0qJHm2Rb-252" value="string" style="shape=partialRectangle;connectable=0;fillColor=none;top=0;left=0;bottom=0;right=0;align=left;spacingLeft=2;overflow=hidden;fontSize=11;" vertex="1" parent="XEY-7R-VME7h0qJHm2Rb-251">
          <mxGeometry width="48" height="22" as="geometry">
            <mxRectangle width="48" height="22" as="alternateBounds" />
          </mxGeometry>
        </mxCell>
        <mxCell id="XEY-7R-VME7h0qJHm2Rb-253" value="type" style="shape=partialRectangle;connectable=0;fillColor=none;top=0;left=0;bottom=0;right=0;align=left;spacingLeft=2;overflow=hidden;fontSize=11;" vertex="1" parent="XEY-7R-VME7h0qJHm2Rb-251">
          <mxGeometry x="48" width="72" height="22" as="geometry">
            <mxRectangle width="72" height="22" as="alternateBounds" />
          </mxGeometry>
        </mxCell>
        <mxCell id="XEY-7R-VME7h0qJHm2Rb-254" style="shape=tableRow;horizontal=0;startSize=0;swimlaneHead=0;swimlaneBody=0;fillColor=none;collapsible=0;dropTarget=0;points=[[0,0.5],[1,0.5]];portConstraint=eastwest;top=0;left=0;right=0;bottom=0;" vertex="1" parent="XEY-7R-VME7h0qJHm2Rb-250">
          <mxGeometry y="47" width="120" height="22" as="geometry" />
        </mxCell>
        <mxCell id="XEY-7R-VME7h0qJHm2Rb-255" value="string" style="shape=partialRectangle;connectable=0;fillColor=none;top=0;left=0;bottom=0;right=0;align=left;spacingLeft=2;overflow=hidden;fontSize=11;" vertex="1" parent="XEY-7R-VME7h0qJHm2Rb-254">
          <mxGeometry width="48" height="22" as="geometry">
            <mxRectangle width="48" height="22" as="alternateBounds" />
          </mxGeometry>
        </mxCell>
        <mxCell id="XEY-7R-VME7h0qJHm2Rb-256" value="functionName" style="shape=partialRectangle;connectable=0;fillColor=none;top=0;left=0;bottom=0;right=0;align=left;spacingLeft=2;overflow=hidden;fontSize=11;" vertex="1" parent="XEY-7R-VME7h0qJHm2Rb-254">
          <mxGeometry x="48" width="72" height="22" as="geometry">
            <mxRectangle width="72" height="22" as="alternateBounds" />
          </mxGeometry>
        </mxCell>
        <mxCell id="XEY-7R-VME7h0qJHm2Rb-257" style="shape=tableRow;horizontal=0;startSize=0;swimlaneHead=0;swimlaneBody=0;fillColor=none;collapsible=0;dropTarget=0;points=[[0,0.5],[1,0.5]];portConstraint=eastwest;top=0;left=0;right=0;bottom=0;" vertex="1" parent="XEY-7R-VME7h0qJHm2Rb-250">
          <mxGeometry y="69" width="120" height="22" as="geometry" />
        </mxCell>
        <mxCell id="XEY-7R-VME7h0qJHm2Rb-258" value="string[]" style="shape=partialRectangle;connectable=0;fillColor=none;top=0;left=0;bottom=0;right=0;align=left;spacingLeft=2;overflow=hidden;fontSize=11;" vertex="1" parent="XEY-7R-VME7h0qJHm2Rb-257">
          <mxGeometry width="48" height="22" as="geometry">
            <mxRectangle width="48" height="22" as="alternateBounds" />
          </mxGeometry>
        </mxCell>
        <mxCell id="XEY-7R-VME7h0qJHm2Rb-259" value="cardTypes" style="shape=partialRectangle;connectable=0;fillColor=none;top=0;left=0;bottom=0;right=0;align=left;spacingLeft=2;overflow=hidden;fontSize=11;" vertex="1" parent="XEY-7R-VME7h0qJHm2Rb-257">
          <mxGeometry x="48" width="72" height="22" as="geometry">
            <mxRectangle width="72" height="22" as="alternateBounds" />
          </mxGeometry>
        </mxCell>
        <mxCell id="XEY-7R-VME7h0qJHm2Rb-260" style="shape=tableRow;horizontal=0;startSize=0;swimlaneHead=0;swimlaneBody=0;fillColor=none;collapsible=0;dropTarget=0;points=[[0,0.5],[1,0.5]];portConstraint=eastwest;top=0;left=0;right=0;bottom=0;" vertex="1" parent="XEY-7R-VME7h0qJHm2Rb-250">
          <mxGeometry y="91" width="120" height="22" as="geometry" />
        </mxCell>
        <mxCell id="XEY-7R-VME7h0qJHm2Rb-261" value="string" style="shape=partialRectangle;connectable=0;fillColor=none;top=0;left=0;bottom=0;right=0;align=left;spacingLeft=2;overflow=hidden;fontSize=11;" vertex="1" parent="XEY-7R-VME7h0qJHm2Rb-260">
          <mxGeometry width="48" height="22" as="geometry">
            <mxRectangle width="48" height="22" as="alternateBounds" />
          </mxGeometry>
        </mxCell>
        <mxCell id="XEY-7R-VME7h0qJHm2Rb-262" value="name" style="shape=partialRectangle;connectable=0;fillColor=none;top=0;left=0;bottom=0;right=0;align=left;spacingLeft=2;overflow=hidden;fontSize=11;" vertex="1" parent="XEY-7R-VME7h0qJHm2Rb-260">
          <mxGeometry x="48" width="72" height="22" as="geometry">
            <mxRectangle width="72" height="22" as="alternateBounds" />
          </mxGeometry>
        </mxCell>
        <mxCell id="XEY-7R-VME7h0qJHm2Rb-263" value="has_one" style="curved=1;startArrow=ERmandOne;startSize=10;;endArrow=ERmany;endSize=10;;exitX=0.49732700064162577;exitY=1;entryX=0.4981518118722098;entryY=0;rounded=0;" edge="1" parent="1" source="XEY-7R-VME7h0qJHm2Rb-133" target="XEY-7R-VME7h0qJHm2Rb-158">
          <mxGeometry relative="1" as="geometry">
            <Array as="points" />
          </mxGeometry>
        </mxCell>
        <mxCell id="XEY-7R-VME7h0qJHm2Rb-264" value="friends" style="curved=1;startArrow=ERmandOne;startSize=10;;endArrow=ERmany;endSize=10;;exitX=0.9965024585566244;exitY=0.2684044337235258;entryX=0.9965024585566244;entryY=0.7315955662764742;rounded=0;" edge="1" parent="1" source="XEY-7R-VME7h0qJHm2Rb-133" target="XEY-7R-VME7h0qJHm2Rb-133">
          <mxGeometry relative="1" as="geometry">
            <Array as="points">
              <mxPoint x="445" y="690" />
              <mxPoint x="462" y="690" />
              <mxPoint x="480" y="790" />
              <mxPoint x="462" y="890" />
              <mxPoint x="445" y="890" />
            </Array>
          </mxGeometry>
        </mxCell>
        <mxCell id="XEY-7R-VME7h0qJHm2Rb-265" value="has_one" style="curved=1;startArrow=ERmandOne;startSize=10;;endArrow=ERmandOne;endSize=10;;exitX=0.04473434895039028;exitY=1;entryX=0.4971058985570094;entryY=0;rounded=0;" edge="1" parent="1" source="XEY-7R-VME7h0qJHm2Rb-158" target="XEY-7R-VME7h0qJHm2Rb-186">
          <mxGeometry relative="1" as="geometry">
            <Array as="points">
              <mxPoint x="199" y="1262" />
            </Array>
          </mxGeometry>
        </mxCell>
        <mxCell id="XEY-7R-VME7h0qJHm2Rb-266" value="contains" style="curved=1;startArrow=ERmandOne;startSize=10;;endArrow=ERmandOne;endSize=10;;exitX=0.4971058985570094;exitY=1;entryX=0.4973299580235635;entryY=0;rounded=0;" edge="1" parent="1" source="XEY-7R-VME7h0qJHm2Rb-186" target="XEY-7R-VME7h0qJHm2Rb-196">
          <mxGeometry relative="1" as="geometry">
            <Array as="points" />
          </mxGeometry>
        </mxCell>
        <mxCell id="XEY-7R-VME7h0qJHm2Rb-267" value="references" style="curved=1;startArrow=ERmandOne;startSize=10;;endArrow=ERmany;endSize=10;;exitX=0.044046472734020604;exitY=1;entryX=0.49835485219955444;entryY=0;rounded=0;" edge="1" parent="1" source="XEY-7R-VME7h0qJHm2Rb-196" target="XEY-7R-VME7h0qJHm2Rb-215">
          <mxGeometry relative="1" as="geometry">
            <Array as="points">
              <mxPoint x="84" y="1730" />
            </Array>
          </mxGeometry>
        </mxCell>
        <mxCell id="XEY-7R-VME7h0qJHm2Rb-268" value="unlockedAbilities" style="curved=1;startArrow=ERmandOne;startSize=10;;endArrow=ERmany;endSize=10;;exitX=0.9506134433131064;exitY=1;entryX=0.4953945216847889;entryY=0;rounded=0;" edge="1" parent="1" source="XEY-7R-VME7h0qJHm2Rb-196" target="XEY-7R-VME7h0qJHm2Rb-240">
          <mxGeometry relative="1" as="geometry">
            <Array as="points">
              <mxPoint x="314" y="1730" />
            </Array>
          </mxGeometry>
        </mxCell>
        <mxCell id="XEY-7R-VME7h0qJHm2Rb-269" value="has_many" style="curved=1;startArrow=ERmandOne;startSize=10;;endArrow=ERmandOne;endSize=10;;exitX=0.9515692747940293;exitY=1;entryX=0.4938915888468424;entryY=0;rounded=0;" edge="1" parent="1" source="XEY-7R-VME7h0qJHm2Rb-158" target="XEY-7R-VME7h0qJHm2Rb-250">
          <mxGeometry relative="1" as="geometry">
            <Array as="points">
              <mxPoint x="429" y="1262" />
            </Array>
          </mxGeometry>
        </mxCell>
      </root>
    </mxGraphModel>
  </diagram>
</mxfile>
